# xmcd
#
# Track frame offsets:
#	150
#	10755
#	24795
#	39470
#	52845
#	65735
#	79205
#	92975
#	105520
#	120185
#	135235
#	150455
#	164055
#
# Disc length: 2372 seconds
#
# Revision: 0
# Processed by: cddbd v1.5.2PL0 Copyright (c) Steve Scherf et al.
# Submitted via: EasyCDDAExtractor 16.0.6.1
#
DISCID=9209420d
DTITLE=Συλλογικός δίσκος - Το ταβερνάκι
DYEAR=1997
DGENRE=Λαϊκή
TTITLE0=Πάνου Πόλυ - Τι σού 'κανα και πίνεις [Μ. Πλέσσας-Λ. Παπαδόπουλος]
TTITLE1=Γαβαλάς Πάνος-Κούρτη Ρία - Ήρθα κοντά σου [Β. Βασιλειάδης-Ε. Κουρμάζος
TTITLE1=]
TTITLE2=Πάνου Πόλυ - Για μιά παράνομη αγάπη [Γ. Χουβαρδάς-Π. Πάνου]
TTITLE3=Πάνου Πόλυ - Τώρα που αλλάζουν οι καρδιές [Θ. Δερβενιώτης-Γ. Σαμολαδάς
TTITLE3=]
TTITLE4=Πάνου Πόλυ - Κάφτε τα, κάφτε τα [Β. Βασιλειάδης-Πυθαγόρας]
TTITLE5=Γαβαλάς Πάνος-Κούρτη Ρία - Φτάνει η αγάπη σου [Β. Βασιλειάδης-Α. Παπαγ
TTITLE5=ιανόπουλος]
TTITLE6=Γαβαλάς Πάνος-Κούρτη Ρία - Για σένα τα πάντα στερήθηκα [Β. Βασιλειάδης
TTITLE6=Π. Γαβαλάς]
TTITLE7=Γαβαλάς Πάνος-Κούρτη Ρία - Φύγε, φύγε, μη σκαλίζεις την καρδιά μου[Β.Β
TTITLE7=ασιλειάδης-Π.Γαβαλάς]
TTITLE8=Γαβαλάς Πάνος - Δεν τραγουδάω πια [Β. Βασιλειάδης-Πυθαγόρας]
TTITLE9=Αγγελόπουλος Μανώλης - Στο ταβερνάκι [Μ. Χιώτης-Γ. Βρούβας]
TTITLE10=Αγγελόπουλος Μανώλης-Χιώτης Μ. - Για να σ' έχω όπα όπα [Μ. Χιώτης-Γ. 
TTITLE10=Βρούβας]
TTITLE11=Κυριακίδου Μπέμπα-Χιώτης Μανώλης - Το αγόρι μου περνάει [Μ. Χιώτης-Γ.
TTITLE11=Βρούβας]
TTITLE12=Πάνου Πόλυ - Μη μού μιλάς [Σπ. Παπαβασιλείου-Μ. Μπιζάνη]
EXTD=
EXTT0=
EXTT1=
EXTT2=
EXTT3=
EXTT4=
EXTT5=
EXTT6=
EXTT7=
EXTT8=
EXTT9=
EXTT10=
EXTT11=
EXTT12=
PLAYORDER=
